<?xml version="1.0" encoding="UTF-8" standalone="no"?>
<!DOCTYPE svg PUBLIC "-//W3C//DTD SVG 1.1//EN" "http://www.w3.org/Graphics/SVG/1.1/DTD/svg11.dtd">
<svg width="100%" height="100%" viewBox="0 0 512 512" version="1.1" xmlns="http://www.w3.org/2000/svg" xmlns:xlink="http://www.w3.org/1999/xlink" xml:space="preserve" xmlns:serif="http://www.serif.com/" style="fill-rule:evenodd;clip-rule:evenodd;stroke-linejoin:round;stroke-miterlimit:2;">
    <g id="Points" transform="matrix(0.352371,0,0,0.352371,-179.671,-367.053)">
        <path id="Карта-Австрии-" serif:id="Карта Австрии " d="M1490,1506C1492.83,1504 1489.5,1492 1490,1487C1490.38,1483.22 1491,1479 1493,1476C1495,1473 1500,1472.17 1502,1469C1504,1465.83 1503.83,1460.17 1505,1457C1505.93,1454.48 1506.54,1451.08 1509,1450C1511.67,1448.83 1519,1449.67 1521,1450C1521.66,1450.11 1520.35,1451.86 1521,1452C1522.5,1452.33 1528.5,1451.17 1530,1452C1531.46,1452.81 1528.83,1456.17 1530,1457C1531.17,1457.83 1535.83,1458.17 1537,1457C1538.17,1455.83 1538.17,1451.17 1537,1450C1535.83,1448.83 1531.17,1451.67 1530,1450C1528.83,1448.33 1528.83,1441.67 1530,1440C1531.17,1438.33 1536.11,1442.16 1537,1440C1538.17,1437.17 1536.33,1425.83 1537,1423C1537.31,1421.7 1540.84,1424.32 1541,1423C1541.67,1417.33 1540.5,1394.67 1541,1389C1541.09,1388 1543.61,1389.92 1544,1389C1544.5,1387.83 1541.95,1383.11 1544,1382C1546.17,1380.83 1554.83,1381.5 1557,1382C1557.97,1382.23 1556.02,1384.82 1557,1385C1559.67,1385.5 1570.33,1383.5 1573,1385C1575.62,1386.47 1572.33,1392.5 1573,1394C1573.54,1395.22 1576.33,1393 1577,1394C1577.67,1395 1576,1399 1577,1400C1578,1401 1582,1400.67 1583,1400C1584,1399.33 1581.78,1396.54 1583,1396C1584.5,1395.33 1590.5,1397.83 1592,1396C1593.5,1394.17 1591.17,1386.83 1592,1385C1592.69,1383.48 1596.17,1384.33 1597,1385C1597.83,1385.67 1597,1387.67 1597,1389C1597,1390.5 1595.39,1393.58 1597,1394C1600.17,1394.83 1612.83,1392.5 1616,1394C1618.71,1395.28 1613.29,1401.72 1616,1403C1619.17,1404.5 1631.83,1401.67 1635,1403C1637.46,1404.04 1632.65,1409.75 1635,1411C1637.5,1412.33 1647.5,1410.17 1650,1411C1651.58,1411.53 1648.51,1415.26 1650,1416C1651.67,1416.83 1658.33,1415.5 1660,1416C1660.96,1416.29 1659.08,1418.61 1660,1419C1661.17,1419.5 1665.83,1417.83 1667,1419C1668.17,1420.17 1664.8,1425.23 1667,1426C1670.33,1427.17 1680.5,1426 1687,1426C1693.33,1426 1702.83,1424.83 1706,1426C1708.19,1426.81 1704.17,1431.83 1706,1433C1707.83,1434.17 1715.17,1432.5 1717,1433C1717.97,1433.26 1716.06,1435.65 1717,1436C1718.33,1436.5 1723.67,1434.67 1725,1436C1726.33,1437.33 1724.26,1441.93 1725,1444C1725.7,1445.97 1727.95,1446.95 1729.43,1448.43C1732.7,1451.7 1737.59,1462.15 1744.6,1463.6C1756.86,1466.12 1791.27,1466.86 1803,1463.6C1810.38,1461.54 1810.33,1447.27 1815,1444C1819.37,1440.94 1827.22,1442.89 1831,1444C1834.01,1444.88 1834.71,1449.58 1837.65,1450.65C1841.32,1451.99 1850.44,1449.84 1853,1452C1855.56,1454.16 1850.33,1461.66 1853,1463.6C1855.67,1465.53 1865.47,1462.74 1869,1463.6C1871.37,1464.17 1871.76,1468.36 1874.16,1468.76C1879.33,1469.62 1894.69,1463.72 1900,1468.76C1905.31,1473.8 1905,1490.46 1906,1499C1906.81,1505.95 1907.67,1513.67 1906,1520C1904.33,1526.33 1898.5,1531.67 1896,1537C1893.76,1541.77 1891.69,1546.78 1891,1552C1890.17,1558.33 1889.5,1568.33 1891,1575C1892.41,1581.26 1897.5,1586.67 1900,1592C1902.29,1596.88 1904.25,1601.91 1906,1607C1907.83,1612.33 1908.3,1618.75 1911,1624C1913.83,1629.5 1919.5,1635.83 1923,1640C1925.73,1643.25 1930.74,1644.95 1932,1649C1933.5,1653.83 1929.83,1664.67 1932,1669C1934.13,1673.27 1942.83,1673 1945,1675C1946.47,1676.36 1945.83,1680 1945,1681C1944.17,1682 1940.63,1679.46 1940,1681C1938.5,1684.67 1937.33,1696.67 1936,1703C1934.87,1708.38 1934.17,1715.5 1932,1719C1930.19,1721.92 1923,1720.57 1923,1724C1923,1731.33 1934,1755.5 1932,1763C1930.12,1770.03 1917.83,1768 1911,1769C1904.4,1769.97 1897.14,1768.17 1891,1769C1885.2,1769.79 1878.83,1775 1874.16,1774C1869.5,1773 1867.19,1765.83 1863,1763C1858.81,1760.17 1853.22,1758.67 1849,1757C1845.27,1755.53 1840.15,1753.67 1837.65,1753C1836.48,1752.69 1834.42,1751.86 1834,1753C1833.39,1754.67 1835.5,1761.33 1834,1763C1832.5,1764.67 1827.42,1761.23 1825,1763C1822.5,1764.83 1820.67,1772.17 1819,1774C1818.1,1774.99 1815.67,1773 1815,1774C1814.33,1775 1813.33,1779 1815,1780C1816.67,1781 1823.33,1779.17 1825,1780C1826.49,1780.75 1823.36,1784.71 1825,1785C1829.67,1785.83 1847.67,1781.5 1853,1785C1858.33,1788.5 1856.33,1800.5 1857,1806C1857.48,1809.97 1857.45,1814.03 1857,1818C1856.33,1823.83 1856.83,1834.67 1853,1841C1849.17,1847.33 1840.33,1853.5 1834,1856C1828.11,1858.33 1818.17,1852.33 1815,1856C1811.83,1859.67 1814.33,1871.17 1815,1878C1815.63,1884.44 1820,1892.17 1819,1897C1818.05,1901.62 1809,1902.29 1809,1907C1809,1911.83 1816.33,1922.83 1819,1926C1820.29,1927.53 1824,1925.17 1825,1926C1826,1926.83 1825,1929.33 1825,1931C1825,1933.5 1826,1938 1825,1941C1824,1944 1819,1946.33 1819,1949C1819,1951.67 1824.25,1953.75 1825,1957C1826,1961.33 1826.67,1972 1825,1975C1823.38,1977.91 1818.33,1975 1815,1975C1808.5,1975 1791.5,1973.33 1786,1975C1782.56,1976.04 1784.76,1982.71 1782,1985C1772.57,1992.83 1738.19,2010.83 1729.43,2022C1723.26,2029.87 1728.34,2046.33 1729.43,2052C1729.92,2054.52 1735.2,2053.56 1736,2056C1737.1,2059.33 1741.3,2072.64 1736,2072C1730.5,2071.33 1711.17,2053.83 1703,2052C1697.03,2050.66 1692.94,2059.52 1687,2061C1681,2062.5 1673.17,2060.17 1667,2061C1661.15,2061.79 1654,2061.67 1650,2066C1646,2070.33 1646,2083.5 1643,2087C1640.61,2089.78 1635.21,2088.77 1632,2087C1628.67,2085.17 1627.52,2077.42 1623,2076C1617.17,2074.17 1605.67,2076 1597,2076C1586,2076 1566.33,2075.17 1557,2076C1551.43,2076.5 1545.5,2079.67 1541,2081C1537.36,2082.08 1533.35,2082.2 1530,2084C1525.33,2086.5 1515.83,2091.17 1513,2096C1510.17,2100.83 1516.77,2108.76 1513,2113C1506.33,2120.5 1481.5,2134 1473,2141C1468.42,2144.77 1466.33,2155 1462,2155C1457.67,2155 1453.62,2142.72 1447,2141C1438,2138.67 1419.17,2141.83 1408,2141C1398.55,2140.29 1385.67,2138.17 1380,2136C1376.89,2134.81 1377.03,2129.4 1374,2128C1367.5,2125 1352.28,2120.23 1341,2118C1328.33,2115.5 1312.19,2115.6 1298,2113C1282.5,2110.17 1262,2103 1248,2101C1236.78,2099.4 1223.17,2101.83 1214,2101C1206.83,2100.35 1200.03,2097.54 1193,2096C1182.33,2093.67 1160.83,2089.5 1150,2087C1142.59,2085.29 1135.39,2082.79 1128,2081C1117.67,2078.5 1099.33,2076.17 1088,2072C1077.91,2068.29 1066.83,2062 1060,2056C1054.03,2050.75 1050.17,2040.67 1047,2036C1045.13,2033.24 1042.28,2031.08 1041,2028C1039,2023.17 1038.83,2011.33 1035,2007C1031.17,2002.67 1021.97,2006.38 1018,2002C1013.17,1996.67 1006,1981.17 1006,1975C1006,1969.79 1014.73,1969.05 1018,1965C1021.5,1960.67 1028.33,1951.67 1027,1949C1025.67,1946.33 1015.57,1947.94 1010,1949C1003,1950.33 992.729,1952.9 985,1957C976.833,1961.33 969.333,1971.17 961,1975C952.982,1978.69 942.5,1981.67 935,1980C927.5,1978.33 921.5,1965.83 916,1965C910.5,1964.17 907.474,1973.29 902,1975C894,1977.5 877.667,1979.17 868,1980C860.03,1980.69 850.333,1979.17 844,1980C839.087,1980.65 833.737,1981.75 830,1985C824.833,1989.5 817.088,1998.68 813,2007C808.167,2016.83 810,2039.17 801,2044C792,2048.83 769.5,2040.83 759,2036C750.007,2031.86 745.667,2018.5 738,2015C730.419,2011.54 719.333,2015 713,2015C708.667,2015 702.064,2018.81 700,2015C697.833,2011 701.667,1996.83 700,1991C698.639,1986.24 692.821,1982.67 690,1980C687.93,1978.04 684.749,1975 683.073,1975C681.396,1975 680.988,1978.34 679.94,1980C678.261,1982.67 676.323,1989.17 673,1991C669.677,1992.83 662.667,1991 660,1991C659,1991 657.184,1990.02 657,1991C656.5,1993.67 660.167,2003 657,2007C653.833,2011 642.667,2013.67 638,2015C635.115,2015.82 631.662,2016.38 629,2015C624.833,2012.83 618.852,2005.6 613,2002C606.5,1998 594.667,1996.17 590,1991C585.394,1985.9 590.085,1975.62 585,1971C579.5,1966 564.667,1963.33 557,1961C551.12,1959.21 542,1961.33 539,1957C536,1952.67 539.833,1940.83 539,1935C538.343,1930.4 535.398,1926.43 534,1922C532,1915.67 526.167,1905.33 527,1897C527.833,1888.67 535.548,1878.33 539,1872C541.496,1867.42 547.043,1864.17 547.71,1859C548.377,1853.83 545.285,1845.33 543,1841C541.128,1837.45 535.5,1835.33 534,1833C532.918,1831.32 532.4,1828.2 534,1827C537.333,1824.5 548.5,1822.67 554,1818C559.5,1813.33 563,1802.17 567,1799C569.875,1796.72 576.167,1797.83 578,1799C579.833,1800.17 575.868,1805.05 578,1806C582.5,1808 599.167,1807.5 605,1811C610.113,1814.07 609,1822.67 613,1827C617,1831.33 626.333,1834.67 629,1837C630.003,1837.88 629,1839.67 629,1841C629,1844.17 627.5,1852.33 629,1856C630.439,1859.52 634.221,1862.6 638,1863C642.667,1863.5 654.833,1856.5 657,1859C659.167,1861.5 652,1873.67 651,1878C650.475,1880.27 649.5,1883.83 651,1885C652.5,1886.17 657.492,1886.65 660,1885C664.823,1881.83 674.071,1871.83 679.94,1866C685.17,1860.8 693.539,1856.5 695.215,1850C696.892,1843.5 690.8,1834.82 690,1827C689.131,1818.5 688.333,1803.59 690,1799C691.138,1795.86 698.333,1797.45 700,1799.45C701.667,1801.45 697.833,1809.07 700,1811C702.167,1812.93 709.333,1811.83 713,1811C716.347,1810.24 718.618,1806.58 722,1806C726.833,1805.17 735.833,1804 742,1806C748.167,1808 752.356,1816.01 759,1818C765.667,1820 775.667,1814.17 782,1818C788.333,1821.83 794.5,1834.67 797,1841C798.836,1845.65 794.333,1854 797,1856C799.667,1858 807.794,1854.53 813,1853C819.167,1851.19 827.833,1846.44 834,1845.12C839.216,1844.02 845.294,1847.63 850,1845.12C855.667,1842.1 863.775,1831.52 868,1827C870.644,1824.17 871.605,1818.99 875.349,1818C881.016,1816.5 896.558,1821.09 902,1818C907.442,1814.91 904.833,1802.46 908,1799.45C911.141,1796.46 916.722,1800.62 921,1799.91C928.5,1798.67 942.078,1793.2 953,1792C965,1790.68 983,1792 993,1792C999.667,1792 1009.67,1795 1013,1792C1016.33,1789 1010.97,1779.65 1013,1774C1015.33,1767.5 1023.33,1753.83 1027,1753C1030.67,1752.17 1029.63,1766.4 1035,1769C1040.5,1771.67 1053.5,1767.17 1060,1769C1065.71,1770.61 1069.33,1777.33 1074,1780C1078.3,1782.46 1084.5,1786 1088,1785C1091.5,1784 1091.01,1775.73 1095,1774C1101.17,1771.33 1118,1767.17 1125,1769C1131.45,1770.69 1135,1779.85 1137,1785C1138.8,1789.63 1137.18,1796.41 1137,1799.91C1136.9,1801.97 1134.73,1804.33 1135.93,1806C1138.1,1809.01 1145.67,1814.5 1150,1818C1153.87,1821.13 1158.42,1825.5 1161.92,1827C1164.7,1828.19 1169.51,1829.63 1171,1827C1172.51,1824.33 1169.54,1816.13 1171,1811C1172.67,1805.17 1179.33,1798.17 1181,1792C1182.57,1786.21 1181,1778.83 1181,1774C1181,1770.33 1184.18,1764.33 1181,1763C1177.82,1761.67 1167.08,1767.67 1161.92,1766C1156.75,1764.33 1149.39,1758.85 1150,1753C1150.68,1746.5 1165,1736.5 1166,1727C1167,1717.5 1160.83,1705.67 1156,1696C1151.17,1686.33 1141.67,1675.34 1137,1669C1134.19,1665.18 1130,1661.32 1128,1657.99C1126.38,1655.28 1123.55,1651.8 1125,1649C1127.33,1644.5 1139.17,1635.83 1142,1631C1143.85,1627.84 1138.79,1621.77 1142,1620C1145.32,1618.17 1156.25,1623 1161.92,1620C1167.58,1617 1169.49,1605.96 1176,1602C1183.68,1597.33 1197.83,1595.67 1208,1592C1217.84,1588.45 1230.33,1584.67 1237,1580C1242.3,1576.29 1246.24,1570.23 1248,1564C1250.83,1554 1250.5,1528.83 1254,1520C1256.15,1514.58 1263.21,1510.34 1269,1511C1276.33,1511.83 1290.33,1525 1298,1525C1305.34,1525 1312.32,1517.83 1315,1511C1318.67,1501.67 1317.83,1478 1320,1469C1321.12,1464.33 1323.41,1455.58 1328,1457C1335,1459.17 1356.33,1475 1362,1482C1365.57,1486.4 1357.93,1495.06 1362,1499C1367,1503.83 1383.5,1508 1392,1511C1398.87,1513.43 1406.5,1517.85 1413,1517.02C1419.5,1516.19 1426.5,1510 1431,1506C1434.94,1502.5 1436.62,1494.17 1440,1493C1443.38,1491.83 1447.07,1498.24 1451.26,1499C1456.76,1500 1466.54,1497.83 1473,1499C1479.03,1500.09 1487.17,1508 1490,1506Z" style="fill:rgb(211,211,211);"/>
        <g id="Линц">
            <g transform="matrix(1,0,0,1,0,-0.46154)">
                <ellipse cx="1398" cy="1611" rx="7" ry="8" style="fill:rgb(255,0,0);"/>
            </g>
            <g transform="matrix(0.371458,0,0,0.371458,836.152,1016.1)">
                <text x="1328.91px" y="1614.39px" style="font-family:'Helvetica-Bold', 'Helvetica';font-weight:700;font-size:50px;">ЛИНЦ</text>
            </g>
        </g>
        <g id="Зальцбург">
            <g transform="matrix(1,0,0,1,-200,147.538)">
                <ellipse cx="1398" cy="1611" rx="7" ry="8" style="fill:rgb(255,0,0);"/>
            </g>
            <g transform="matrix(0.371458,0,0,0.371458,695.152,1148.1)">
                <text x="1328.91px" y="1614.39px" style="font-family:'Helvetica-Bold', 'Helvetica';font-weight:700;font-size:50px;">ЗАЛЬЦБУРГ</text>
            </g>
        </g>
        <g id="Клагенфурт">
            <g transform="matrix(1,0,0,1,55,446.538)">
                <ellipse cx="1398" cy="1611" rx="7" ry="8" style="fill:rgb(255,0,0);"/>
            </g>
            <g transform="matrix(0.371458,0,0,0.371458,895.152,1482.1)">
                <text x="1328.91px" y="1614.39px" style="font-family:'Helvetica-Bold', 'Helvetica';font-weight:700;font-size:50px;">КЛАГЕНФУРТ</text>
            </g>
        </g>
        <g transform="matrix(1,0,0,1,-806,220.538)">
            <ellipse cx="1398" cy="1611" rx="7" ry="8" style="fill:rgb(255,0,0);"/>
        </g>
        <g id="Инсбрук">
            <g transform="matrix(1,0,0,1,-494,315.538)">
                <ellipse cx="1398" cy="1611" rx="7" ry="8" style="fill:rgb(255,0,0);"/>
            </g>
            <g transform="matrix(0.371458,0,0,0.371458,389.152,1313.1)">
                <text x="1328.91px" y="1614.39px" style="font-family:'Helvetica-Bold', 'Helvetica';font-weight:700;font-size:50px;">ИНСБРУК</text>
            </g>
        </g>
        <g id="Санкт-Пельтен">
            <g transform="matrix(1,0,0,1,247,-10.4615)">
                <ellipse cx="1398" cy="1611" rx="7" ry="8" style="fill:rgb(255,0,0);"/>
            </g>
            <g transform="matrix(0.371458,0,0,0.371458,1081.15,991.099)">
                <text x="1328.91px" y="1614.39px" style="font-family:'Helvetica-Bold', 'Helvetica';font-weight:700;font-size:50px;">САНКТ</text>
                <text x="1503.94px" y="1614.39px" style="font-family:'ArialHebrew-Bold', 'Arial Hebrew';font-weight:700;font-size:50px;">-</text>
                <text x="1524.59px" y="1614.39px" style="font-family:'Helvetica-Bold', 'Helvetica';font-weight:700;font-size:50px;">ПЕЛЬТЕН</text>
            </g>
        </g>
        <g id="Грац">
            <g transform="matrix(1,0,0,1,247,305.538)">
                <ellipse cx="1398" cy="1611" rx="7" ry="8" style="fill:rgb(255,0,0);"/>
            </g>
            <g transform="matrix(0.371458,0,0,0.371458,1164.15,1322.1)">
                <text x="1328.91px" y="1614.39px" style="font-family:'Helvetica-Bold', 'Helvetica';font-weight:700;font-size:50px;">ГРАЦ</text>
            </g>
        </g>
        <g transform="matrix(1,0,0,1,434,119.538)">
            <ellipse cx="1398" cy="1611" rx="7" ry="8" style="fill:rgb(255,0,0);"/>
        </g>
        <g id="ВЕНА">
            <g transform="matrix(0.371458,0,0,0.371458,1323.15,1026.1)">
                <text x="1328.91px" y="1614.39px" style="font-family:'Helvetica-Bold', 'Helvetica';font-weight:700;font-size:78.519px;">ВЕНА</text>
            </g>
            <g transform="matrix(1,0,0,1,25,29)">
                <rect x="1766" y="1582" width="17" height="15" style="fill:rgb(255,0,0);"/>
            </g>
        </g>
    </g>
</svg>
