<?xml version="1.0" encoding="UTF-8" standalone="no"?>
<!DOCTYPE svg PUBLIC "-//W3C//DTD SVG 1.1//EN" "http://www.w3.org/Graphics/SVG/1.1/DTD/svg11.dtd">
<svg width="100%" height="100%" viewBox="0 0 216 179" version="1.1" xmlns="http://www.w3.org/2000/svg" xmlns:xlink="http://www.w3.org/1999/xlink" xml:space="preserve" xmlns:serif="http://www.serif.com/" style="fill-rule:evenodd;clip-rule:evenodd;stroke-linejoin:round;stroke-miterlimit:2;">
    <g transform="matrix(1,0,0,1,-331.739,-513.78)">
        <g transform="matrix(1,0,0,1,-1031.84,-2073.86)">
            <g id="LOGO-QLIXA-по-частям" serif:id="LOGO QLIXA по частям" transform="matrix(0.426904,0,0,0.426904,1196.23,1887.93)">
                <g id="хвост" transform="matrix(1,0,0,1,-1.11513,-1.11513)">
                    <path d="M758.991,1970.08C735.058,1988.79 820.002,1893.1 802.68,1921.23L896,1962C898.943,1969.69 899.011,1977.03 896,1984L836,2036C829.333,2037.33 822.667,2037.49 816,2036L758.991,1970.08Z" style="fill:white;"/>
                </g>
                <g id="тело" transform="matrix(2.66643,0,0,2.59131,-506.392,288.944)">
                    <ellipse cx="432" cy="592" rx="69" ry="71" style="fill:white;"/>
                </g>
                <g id="нога-правая" serif:id="нога правая" transform="matrix(-1.81445,0.339609,-0.288988,-1.54399,1456.92,2893.29)">
                    <path d="M336,615L348,658L324,658L336,615Z" style="fill:white;"/>
                </g>
                <g id="нога-левая" serif:id="нога левая" transform="matrix(-1.82722,0.262373,-0.223264,-1.55486,1356.13,2923.82)">
                    <path d="M336,615L348,658L324,658L336,615Z" style="fill:white;"/>
                </g>
                <g id="полоски" transform="matrix(0.432204,0,0,0.432204,-175.949,1377.11)">
                    <g transform="matrix(6.12323e-17,-1,1,6.12323e-17,973.636,3275.79)">
                        <path d="M2022.83,980.071C2022.83,980.071 2010.13,970.547 2004.95,980.071L2004.95,1203.21C2011.85,1212.5 2017.66,1211.73 2022.62,1203.21L2022.83,980.071Z"/>
                    </g>
                    <g transform="matrix(6.12323e-17,-1,1,6.12323e-17,973.636,3226.79)">
                        <path d="M2022.83,980.071C2022.83,980.071 2010.13,970.547 2004.95,980.071L2004.95,1203.21C2011.85,1212.5 2017.66,1211.73 2022.62,1203.21L2022.83,980.071Z"/>
                    </g>
                    <g transform="matrix(6.12323e-17,-1,1,6.12323e-17,973.636,3180.79)">
                        <path d="M2022.83,1103.07C2022.83,1103.07 2010.13,1093.55 2004.95,1103.07L2004.95,1203.21C2011.85,1212.5 2017.66,1211.73 2022.62,1203.21L2022.83,1103.07Z"/>
                    </g>
                    <g transform="matrix(6.12323e-17,-1,1,6.12323e-17,973.636,3130.79)">
                        <path d="M2022.83,1103.07C2022.83,1103.07 2010.13,1093.55 2004.95,1103.07L2004.95,1203.21C2011.85,1212.5 2017.66,1211.73 2022.62,1203.21L2022.83,1103.07Z"/>
                    </g>
                    <g transform="matrix(6.12323e-17,-1,1,6.12323e-17,973.636,3082.79)">
                        <path d="M2022.83,1103.07C2022.83,1103.07 2010.13,1093.55 2004.95,1103.07L2004.95,1203.21C2011.85,1212.5 2017.66,1211.73 2022.62,1203.21L2022.83,1103.07Z"/>
                    </g>
                    <g transform="matrix(6.12323e-17,-1,1,6.12323e-17,973.636,3032.79)">
                        <path d="M2022.83,1103.07C2022.83,1103.07 2010.13,1093.55 2004.95,1103.07L2004.95,1203.21C2011.85,1212.5 2017.66,1211.73 2022.62,1203.21L2022.83,1103.07Z"/>
                    </g>
                </g>
                <path id="клюв" d="M467.454,1779.77L392,1695L504.432,1706.69L467.454,1779.77Z" style="fill:rgb(204,0,0);"/>
                <path id="глаз" d="M490,1832C496.683,1733.57 552.699,1683.52 648,1672C628.425,1726.08 628.121,1779.39 645,1832C591.363,1807.93 539.611,1806.89 490,1832Z"/>
                <g id="зрачок" transform="matrix(0.984252,0,0,0.984252,12.7559,27.9134)">
                    <circle cx="580" cy="1733" r="24" style="fill:white;"/>
                </g>
            </g>
        </g>
    </g>
</svg>
