<?xml version="1.0" encoding="UTF-8" standalone="no"?>
<!DOCTYPE svg PUBLIC "-//W3C//DTD SVG 1.1//EN" "http://www.w3.org/Graphics/SVG/1.1/DTD/svg11.dtd">
<svg width="100%" height="100%" viewBox="0 0 284 319" version="1.1" xmlns="http://www.w3.org/2000/svg" xmlns:xlink="http://www.w3.org/1999/xlink" xml:space="preserve" xmlns:serif="http://www.serif.com/" style="fill-rule:evenodd;clip-rule:evenodd;stroke-linecap:round;stroke-linejoin:round;stroke-miterlimit:1.5;">
    <g transform="matrix(1,0,0,1,-335.091,-1168.69)">
        <g transform="matrix(0.6,0,0,0.6,155.263,695.591)">
            <g transform="matrix(2.21706,0,0,2.46098,-269.591,-2571.53)">
                <g transform="matrix(0.909908,0,0,0.909908,-1298.48,-111.689)">
                    <g transform="matrix(1.07653,0,0,1.07653,-128.624,-141.42)">
                        <circle cx="1816" cy="1748" r="108.772" style="fill:rgb(238,226,218);"/>
                    </g>
                    <g id="new" transform="matrix(0.209187,0,0,0.204789,1600.89,1395.14)">
                        <ellipse cx="1077.64" cy="1685.27" rx="494.031" ry="504.641" style="fill:rgb(53,52,52);"/>
                    </g>
                    <g transform="matrix(1.07653,0,0,1.07653,-128.624,-141.42)">
                        <circle cx="1816" cy="1748" r="79.839" style="fill:rgb(246,234,225);"/>
                    </g>
                    <g id="new1" serif:id="new" transform="matrix(1.01388,0,0,0.909741,-27.8628,159.588)">
                        <path d="M1888,1698.62L1888,1781.38C1888,1793.31 1878.35,1803 1866.47,1803L1795.53,1803C1783.65,1803 1774,1793.31 1774,1781.38L1774,1698.62C1774,1686.69 1783.65,1677 1795.53,1677L1866.47,1677C1878.35,1677 1888,1686.69 1888,1698.62Z" style="fill:rgb(179,170,164);stroke:rgb(53,52,52);stroke-width:3.4px;"/>
                    </g>
                    <g id="new2" serif:id="new" transform="matrix(0.984825,0,0,0.883668,19.2668,198.931)">
                        <path d="M1888,1692.53L1888,1787.47C1888,1796.04 1881.07,1803 1872.53,1803L1789.47,1803C1780.93,1803 1774,1796.04 1774,1787.47L1774,1692.53C1774,1683.96 1780.93,1677 1789.47,1677L1872.53,1677C1881.07,1677 1888,1683.96 1888,1692.53Z" style="fill:rgb(246,234,225);stroke:rgb(53,52,52);stroke-width:3.5px;"/>
                    </g>
                </g>
                <g id="glasses" transform="matrix(0.909908,0,0,0.909908,-1298.48,-111.011)">
                    <g transform="matrix(9.04163e-17,-1.41907,-1.9972,-1.25178e-16,2794.17,3476.65)">
                        <path d="M1208.5,472C1205.94,474.474 1203.86,480.119 1203.86,486.5C1203.86,492.881 1205.94,498.526 1208.5,501C1203.26,501 1199,494.503 1199,486.5C1199,478.497 1203.26,472 1208.5,472Z" style="fill:rgb(170,170,170);"/>
                    </g>
                    <g transform="matrix(2.41688,0,0,2.41688,-2317.15,-2444.62)">
                        <g transform="matrix(0.450057,0,0,0.327633,891.388,1157.52)">
                            <path d="M1821,1739.92L1821,1748.08C1821,1755.21 1816.32,1761 1810.56,1761L1798.44,1761C1792.68,1761 1788,1755.21 1788,1748.08L1788,1739.92C1788,1732.79 1792.68,1727 1798.44,1727L1810.56,1727C1816.32,1727 1821,1732.79 1821,1739.92Z" style="fill:rgb(62,61,61);"/>
                        </g>
                        <g transform="matrix(0.450057,0,0,0.327633,909.954,1157.52)">
                            <path d="M1821,1739.92L1821,1748.08C1821,1755.21 1816.32,1761 1810.56,1761L1798.44,1761C1792.68,1761 1788,1755.21 1788,1748.08L1788,1739.92C1788,1732.79 1792.68,1727 1798.44,1727L1810.56,1727C1816.32,1727 1821,1732.79 1821,1739.92Z" style="fill:rgb(62,61,61);"/>
                        </g>
                        <g transform="matrix(5.26272e-17,-0.185138,0.15869,4.50955e-17,1461.67,1818.77)">
                            <path d="M496,1565.9L496,1602.1C496,1605.35 493.957,1608 491.44,1608L488.56,1608C486.043,1608 484,1605.35 484,1602.1L484,1565.9C484,1562.65 486.043,1560 488.56,1560L491.44,1560C493.957,1560 496,1562.65 496,1565.9Z" style="fill:rgb(62,61,61);"/>
                        </g>
                        <g transform="matrix(0.0321067,-0.182333,0.156285,0.02752,1431.82,1773.33)">
                            <path d="M496,1565.87L496,1602.13C496,1605.37 493.957,1608 491.44,1608L488.56,1608C486.043,1608 484,1605.37 484,1602.13L484,1565.87C484,1562.63 486.043,1560 488.56,1560L491.44,1560C493.957,1560 496,1562.63 496,1565.87Z" style="fill:rgb(62,61,61);"/>
                        </g>
                        <g transform="matrix(-0.0321067,-0.182333,-0.156285,0.02752,1993.78,1773.33)">
                            <path d="M496,1565.87L496,1602.13C496,1605.37 493.957,1608 491.44,1608L488.56,1608C486.043,1608 484,1605.37 484,1602.13L484,1565.87C484,1562.63 486.043,1560 488.56,1560L491.44,1560C493.957,1560 496,1562.63 496,1565.87Z" style="fill:rgb(62,61,61);"/>
                        </g>
                        <g transform="matrix(-1.24254e-17,0.105793,0.0991812,8.92721e-18,1562.15,1674.41)">
                            <path d="M496,1565.4L496,1602.6C496,1605.58 493.957,1608 491.44,1608L488.56,1608C486.043,1608 484,1605.58 484,1602.6L484,1565.4C484,1562.42 486.043,1560 488.56,1560L491.44,1560C493.957,1560 496,1562.42 496,1565.4Z" style="fill:rgb(62,61,61);"/>
                        </g>
                        <g transform="matrix(-1.24254e-17,0.105793,0.0991812,8.92721e-18,1543.58,1674.41)">
                            <path d="M496,1565.4L496,1602.6C496,1605.58 493.957,1608 491.44,1608L488.56,1608C486.043,1608 484,1605.58 484,1602.6L484,1565.4C484,1562.42 486.043,1560 488.56,1560L491.44,1560C493.957,1560 496,1562.42 496,1565.4Z" style="fill:rgb(62,61,61);"/>
                        </g>
                    </g>
                    <g transform="matrix(0.305978,0.0417984,-0.0573002,0.419456,1387.24,920.205)">
                        <path d="M1864,1708L1864,1708C1864,1711.31 1859.93,1714 1854.91,1714L1797.09,1714C1792.07,1714 1788,1711.31 1788,1708L1788,1708C1788,1704.69 1792.07,1702 1797.09,1702L1854.91,1702C1859.93,1702 1864,1704.69 1864,1708Z" style="fill:rgb(53,52,52);"/>
                    </g>
                    <g transform="matrix(0.306057,-0.0412109,0.0564948,0.419565,1141.61,1071.59)">
                        <path d="M1864,1708L1864,1708C1864,1711.31 1859.93,1714 1854.91,1714L1797.09,1714C1792.07,1714 1788,1711.31 1788,1708L1788,1708C1788,1704.69 1792.07,1702 1797.09,1702L1854.91,1702C1859.93,1702 1864,1704.69 1864,1708Z" style="fill:rgb(53,52,52);"/>
                    </g>
                    <g transform="matrix(1.51351,0,0,2.03961,-943.403,-1793.59)">
                        <path d="M1864,1708L1864,1708C1864,1711.31 1859.98,1714 1855.03,1714L1796.97,1714C1792.02,1714 1788,1711.31 1788,1708L1788,1708C1788,1704.69 1792.02,1702 1796.97,1702L1855.03,1702C1859.98,1702 1864,1704.69 1864,1708Z" style="fill:rgb(246,109,52);stroke:rgb(53,52,52);stroke-width:1.79px;"/>
                    </g>
                </g>
                <g transform="matrix(0.366502,0,0,0.366502,-288.706,1186.53)">
                    <g>
                        <g transform="matrix(0.749719,0,0,0.749719,806.47,67.1616)">
                            <path d="M1612.56,1299.42C1605.85,1309.59 1576.13,1341.3 1564.52,1346.44C1556.31,1350.09 1549,1336.94 1542.94,1330.31C1531.3,1317.56 1504.52,1279.02 1494.66,1269.99C1491.61,1267.18 1486.98,1273.4 1483.82,1276.09C1478.41,1280.7 1467.36,1296.51 1462.17,1297.65C1456.97,1298.79 1454.76,1288.38 1452.65,1282.93C1447.24,1268.95 1434.99,1231.25 1429.69,1213.79C1426.14,1202.1 1424.35,1189.92 1420.85,1178.21C1417.34,1166.49 1412.11,1153.01 1408.65,1143.44C1405.9,1135.86 1402.41,1127.77 1400.07,1120.83C1397.96,1114.58 1395.6,1108.1 1394.59,1101.82C1393.6,1095.68 1392.3,1087.57 1394.02,1083.17C1395.64,1079.02 1400.48,1074.99 1404.92,1075.44C1409.48,1075.9 1416.07,1082.2 1421.41,1085.93C1448.89,1105.18 1544.71,1171.5 1569.81,1190.9C1572.88,1193.27 1574.05,1199.05 1571.99,1202.33C1568.6,1207.72 1552.38,1217.75 1549.45,1223.25C1547.41,1227.09 1551.52,1232.08 1554.42,1235.33C1563.64,1245.69 1595.1,1274.74 1604.79,1285.42C1608.37,1289.38 1615.5,1294.96 1612.56,1299.42Z" style="fill:rgb(53,52,52);"/>
                        </g>
                        <g transform="matrix(0.749719,0,0,0.749719,806.47,67.1616)">
                            <path d="M1434.55,1177.16C1432.18,1172.15 1433.83,1154 1431.55,1142.69C1429.26,1131.33 1419.08,1112.56 1420.82,1108.96C1422.56,1105.37 1435.14,1116.72 1441.98,1121.13C1458.92,1132.05 1504.64,1161.49 1522.45,1174.48C1532.16,1181.56 1545.82,1194.78 1548.83,1199.06C1550.44,1201.35 1543.19,1200.86 1540.48,1200.14C1536.24,1199.01 1528.48,1195.93 1523.38,1192.28C1514.56,1185.97 1496.53,1168.37 1487.6,1162.31C1482.38,1158.76 1474.15,1156.95 1469.79,1155.88C1467.08,1155.21 1463.71,1154.28 1461.43,1155.88C1457.43,1158.69 1450.29,1169.18 1445.81,1172.73C1442.65,1175.23 1436.28,1180.8 1434.55,1177.16Z" style="fill:rgb(223,212,204);"/>
                        </g>
                        <g transform="matrix(0.749719,0,0,0.749719,806.47,67.1616)">
                            <path d="M1540.06,1244.82C1541.48,1248.87 1551.28,1264.39 1555.74,1271.83C1559.31,1277.78 1561.96,1284.98 1566.82,1289.44C1571.67,1293.91 1581.84,1298.35 1584.87,1298.65C1587.34,1298.89 1585.99,1293.48 1584.97,1291.22C1583.33,1287.56 1578.66,1281.29 1575.01,1276.68C1571.12,1271.78 1566.25,1266.63 1561.65,1261.81C1557.02,1256.95 1550.82,1250.36 1547.22,1247.52C1545.21,1245.94 1539.21,1242.41 1540.06,1244.82Z" style="fill:rgb(223,212,204);"/>
                        </g>
                    </g>
                    <g>
                        <g transform="matrix(0.808143,-0.611745,0.611745,0.808143,51.9344,857.329)">
                            <rect x="1344.45" y="1110.13" width="35.315" height="10.91" style="fill:rgb(246,109,52);"/>
                        </g>
                        <g transform="matrix(0.808143,-0.611745,0.611745,0.808143,123.281,803.699)">
                            <rect x="1344.45" y="1110.13" width="35.315" height="10.91" style="fill:rgb(246,109,52);"/>
                        </g>
                        <g transform="matrix(0.299529,-0.968303,0.968303,0.299529,390.093,1839.06)">
                            <rect x="1344.45" y="1110.13" width="35.315" height="10.91" style="fill:rgb(246,109,52);"/>
                        </g>
                        <g transform="matrix(-0.571392,-0.837161,0.837161,-0.571392,1684.18,2633.19)">
                            <rect x="1344.45" y="1110.13" width="35.315" height="10.91" style="fill:rgb(246,109,52);"/>
                        </g>
                        <g transform="matrix(-1.00777,0.10831,0.10831,1.00777,3076.85,-379.473)">
                            <rect x="1344.45" y="1110.13" width="35.315" height="10.91" style="fill:rgb(246,109,52);"/>
                        </g>
                    </g>
                </g>
            </g>
        </g>
    </g>
</svg>
