<?xml version="1.0" encoding="UTF-8" standalone="no"?>
<!DOCTYPE svg PUBLIC "-//W3C//DTD SVG 1.1//EN" "http://www.w3.org/Graphics/SVG/1.1/DTD/svg11.dtd">
<svg width="100%" height="100%" viewBox="0 0 217 178" version="1.1" xmlns="http://www.w3.org/2000/svg" xmlns:xlink="http://www.w3.org/1999/xlink" xml:space="preserve" xmlns:serif="http://www.serif.com/" style="fill-rule:evenodd;clip-rule:evenodd;stroke-linejoin:round;stroke-miterlimit:2;">
    <g transform="matrix(1,0,0,1,-65.5813,-1835.12)">
        <g transform="matrix(1,0,0,1,-75,-752.5)">
            <g id="LOGO" transform="matrix(0.426904,0,0,0.426904,-26.7653,1887.5)">
                <path id="тело" d="M467.454,1779.77L392,1695L504.432,1706.69C538.195,1665.95 589.098,1640 646,1640C747.552,1640 830,1722.67 830,1824.5C830,1859.96 820.002,1893.1 802.68,1921.23L896,1962C898.943,1969.69 899.011,1977.03 896,1984L836,2036C829.333,2037.33 822.667,2037.49 816,2036L758.991,1970.08C735.058,1988.79 706.401,2001.7 675.127,2006.7L668,2055L644.62,2009C633.229,2008.91 622.083,2007.79 611.272,2005.71L604,2055L573,1994L573.26,1994C507.84,1965.7 462,1900.43 462,1824.5C462,1809.08 463.891,1794.09 467.454,1779.77Z" style="fill:white;"/>
                <g id="полоски" transform="matrix(0.432204,0,0,0.432204,-175.949,1377.11)">
                    <g transform="matrix(6.12323e-17,-1,1,6.12323e-17,973.636,3275.79)">
                        <path d="M2022.83,980.071C2022.83,980.071 2010.13,970.547 2004.95,980.071L2004.95,1203.21C2011.85,1212.5 2017.66,1211.73 2022.62,1203.21L2022.83,980.071Z"/>
                    </g>
                    <g transform="matrix(6.12323e-17,-1,1,6.12323e-17,973.636,3226.79)">
                        <path d="M2022.83,980.071C2022.83,980.071 2010.13,970.547 2004.95,980.071L2004.95,1203.21C2011.85,1212.5 2017.66,1211.73 2022.62,1203.21L2022.83,980.071Z"/>
                    </g>
                    <g transform="matrix(6.12323e-17,-1,1,6.12323e-17,973.636,3180.79)">
                        <path d="M2022.83,1103.07C2022.83,1103.07 2010.13,1093.55 2004.95,1103.07L2004.95,1203.21C2011.85,1212.5 2017.66,1211.73 2022.62,1203.21L2022.83,1103.07Z"/>
                    </g>
                    <g transform="matrix(6.12323e-17,-1,1,6.12323e-17,973.636,3130.79)">
                        <path d="M2022.83,1103.07C2022.83,1103.07 2010.13,1093.55 2004.95,1103.07L2004.95,1203.21C2011.85,1212.5 2017.66,1211.73 2022.62,1203.21L2022.83,1103.07Z"/>
                    </g>
                    <g transform="matrix(6.12323e-17,-1,1,6.12323e-17,973.636,3082.79)">
                        <path d="M2022.83,1103.07C2022.83,1103.07 2010.13,1093.55 2004.95,1103.07L2004.95,1203.21C2011.85,1212.5 2017.66,1211.73 2022.62,1203.21L2022.83,1103.07Z"/>
                    </g>
                    <g transform="matrix(6.12323e-17,-1,1,6.12323e-17,973.636,3032.79)">
                        <path d="M2022.83,1103.07C2022.83,1103.07 2010.13,1093.55 2004.95,1103.07L2004.95,1203.21C2011.85,1212.5 2017.66,1211.73 2022.62,1203.21L2022.83,1103.07Z"/>
                    </g>
                </g>
                <path id="клюв" d="M467.454,1779.77L392,1695L504.432,1706.69L467.454,1779.77Z" style="fill:rgb(204,0,0);"/>
                <path id="глаз" d="M490,1832C496.683,1733.57 552.699,1683.52 648,1672C628.425,1726.08 628.121,1779.39 645,1832C591.363,1807.93 539.611,1806.89 490,1832Z"/>
                <g id="зрачок" transform="matrix(0.984252,0,0,0.984252,12.7559,27.9134)">
                    <circle cx="580" cy="1733" r="24" style="fill:white;"/>
                </g>
            </g>
        </g>
    </g>
</svg>
