<?xml version="1.0" encoding="UTF-8" standalone="no"?>
<!DOCTYPE svg PUBLIC "-//W3C//DTD SVG 1.1//EN" "http://www.w3.org/Graphics/SVG/1.1/DTD/svg11.dtd">
<svg width="100%" height="100%" viewBox="0 0 384 95" version="1.1" xmlns="http://www.w3.org/2000/svg" xmlns:xlink="http://www.w3.org/1999/xlink" xml:space="preserve" xmlns:serif="http://www.serif.com/" style="fill-rule:evenodd;clip-rule:evenodd;stroke-linejoin:round;stroke-miterlimit:2;">
    <g transform="matrix(1,0,0,1,-95.6148,-8.17886)">
        <g transform="matrix(0.530769,0,0,0.530769,20.9769,-1364.95)">
            <g id="QLIXA---reports-in-One-Click" serif:id="QLIXA + reports in One Click" transform="matrix(0.697492,0,0,0.697492,133.108,1125.39)">
                <g id="Reports-in-One-Click" serif:id="Reports in One Click" transform="matrix(0.942813,0,0,0.317881,44.0422,1639.14)">
                    <path d="M330.169,2235.67L330.169,2123.08L347.001,2123.08C350.384,2123.08 352.957,2124.09 354.717,2126.11C356.478,2128.13 357.885,2131.7 358.938,2136.82C359.991,2141.95 360.518,2147.6 360.518,2153.8C360.518,2161.78 359.646,2168.52 357.903,2174C356.159,2179.47 353.466,2182.96 349.823,2184.44C351.153,2186.34 352.162,2188.2 352.853,2190.05C354.32,2194.04 355.71,2199.03 357.022,2205.03L363.625,2235.67L357.307,2235.67L352.283,2212.24C350.816,2205.49 349.608,2200.32 348.658,2196.73C347.709,2193.15 346.858,2190.64 346.107,2189.2C345.356,2187.77 344.593,2186.77 343.816,2186.21C343.246,2185.85 342.314,2185.67 341.019,2185.67L335.193,2185.67L335.193,2235.67L330.169,2235.67ZM335.193,2172.77L345.991,2172.77C348.287,2172.77 350.082,2172.06 351.377,2170.66C352.672,2169.25 353.656,2166.99 354.329,2163.9C355.002,2160.8 355.339,2157.43 355.339,2153.8C355.339,2148.47 354.687,2144.1 353.384,2140.66C352.08,2137.23 350.022,2135.52 347.208,2135.52L335.193,2135.52L335.193,2172.77Z" style="fill-rule:nonzero;"/>
                    <path d="M368.494,2235.67L368.494,2123.08L395.942,2123.08L395.942,2136.36L373.517,2136.36L373.517,2170.85L394.518,2170.85L394.518,2184.06L373.517,2184.06L373.517,2222.38L396.823,2222.38L396.823,2235.67L368.494,2235.67Z" style="fill-rule:nonzero;"/>
                    <path d="M403.762,2235.67L403.762,2123.08L418.082,2123.08C420.603,2123.08 422.528,2123.43 423.857,2124.15C425.721,2125.07 427.284,2126.83 428.544,2129.41C429.804,2132 430.818,2135.62 431.587,2140.28C432.355,2144.94 432.739,2150.06 432.739,2155.64C432.739,2165.22 431.712,2173.32 429.657,2179.95C427.603,2186.58 423.891,2189.89 418.523,2189.89L408.786,2189.89L408.786,2235.67L403.762,2235.67ZM408.786,2176.61L418.6,2176.61C421.846,2176.61 424.15,2174.82 425.514,2171.23C426.878,2167.65 427.56,2162.61 427.56,2156.1C427.56,2151.39 427.158,2147.36 426.356,2144.01C425.553,2140.65 424.496,2138.44 423.184,2137.36C422.338,2136.7 420.775,2136.36 418.497,2136.36L408.786,2136.36L408.786,2176.61Z" style="fill-rule:nonzero;"/>
                    <path d="M437.607,2180.83C437.607,2162.14 439.299,2147.51 442.682,2136.94C446.066,2126.37 450.434,2121.08 455.785,2121.08C459.29,2121.08 462.449,2123.56 465.263,2128.53C468.077,2133.5 470.222,2140.42 471.698,2149.3C473.174,2158.19 473.912,2168.26 473.912,2179.53C473.912,2190.95 473.135,2201.16 471.581,2210.17C470.028,2219.18 467.826,2226.01 464.978,2230.64C462.13,2235.27 459.057,2237.59 455.759,2237.59C452.186,2237.59 448.992,2235.03 446.178,2229.91C443.364,2224.79 441.232,2217.8 439.782,2208.94C438.332,2200.08 437.607,2190.71 437.607,2180.83ZM442.786,2181.06C442.786,2194.63 444.016,2205.32 446.476,2213.13C448.936,2220.94 452.022,2224.84 455.734,2224.84C459.514,2224.84 462.626,2220.9 465.069,2213.01C467.511,2205.13 468.733,2193.94 468.733,2179.45C468.733,2170.28 468.211,2162.28 467.166,2155.45C466.122,2148.61 464.594,2143.31 462.583,2139.55C460.572,2135.79 458.314,2133.91 455.811,2133.91C452.255,2133.91 449.195,2137.53 446.631,2144.77C444.068,2152.02 442.786,2164.12 442.786,2181.06Z" style="fill-rule:nonzero;"/>
                    <path d="M480.463,2235.67L480.463,2123.08L497.295,2123.08C500.678,2123.08 503.251,2124.09 505.012,2126.11C506.772,2128.13 508.179,2131.7 509.232,2136.82C510.285,2141.95 510.812,2147.6 510.812,2153.8C510.812,2161.78 509.94,2168.52 508.197,2174C506.453,2179.47 503.76,2182.96 500.117,2184.44C501.447,2186.34 502.457,2188.2 503.147,2190.05C504.614,2194.04 506.004,2199.03 507.316,2205.03L513.919,2235.67L507.601,2235.67L502.577,2212.24C501.11,2205.49 499.902,2200.32 498.952,2196.73C498.003,2193.15 497.152,2190.64 496.401,2189.2C495.651,2187.77 494.887,2186.77 494.11,2186.21C493.54,2185.85 492.608,2185.67 491.313,2185.67L485.487,2185.67L485.487,2235.67L480.463,2235.67ZM485.487,2172.77L496.285,2172.77C498.581,2172.77 500.376,2172.06 501.671,2170.66C502.966,2169.25 503.95,2166.99 504.623,2163.9C505.296,2160.8 505.633,2157.43 505.633,2153.8C505.633,2148.47 504.981,2144.1 503.678,2140.66C502.375,2137.23 500.316,2135.52 497.502,2135.52L485.487,2135.52L485.487,2172.77Z" style="fill-rule:nonzero;"/>
                    <path d="M527.385,2235.67L527.385,2136.36L514.878,2136.36L514.878,2123.08L544.967,2123.08L544.967,2136.36L532.408,2136.36L532.408,2235.67L527.385,2235.67Z" style="fill-rule:nonzero;"/>
                    <path d="M548.411,2199.49L553.15,2198.27C553.375,2203.9 553.897,2208.52 554.717,2212.13C555.537,2215.74 556.81,2218.66 558.536,2220.89C560.263,2223.11 562.205,2224.23 564.363,2224.23C566.279,2224.23 567.971,2223.38 569.438,2221.69C570.905,2220 571.997,2217.68 572.714,2214.74C573.43,2211.8 573.788,2208.58 573.788,2205.1C573.788,2201.57 573.443,2198.48 572.753,2195.85C572.062,2193.21 570.923,2191 569.335,2189.2C568.316,2188.03 566.063,2186.2 562.576,2183.71C559.089,2181.23 556.646,2178.89 555.248,2176.68C553.435,2173.87 552.084,2170.37 551.195,2166.2C550.306,2162.03 549.862,2157.36 549.862,2152.18C549.862,2146.5 550.405,2141.19 551.493,2136.25C552.581,2131.31 554.169,2127.56 556.258,2125C558.346,2122.44 560.668,2121.16 563.223,2121.16C566.037,2121.16 568.519,2122.5 570.668,2125.19C572.817,2127.88 574.47,2131.83 575.627,2137.05C576.784,2142.28 577.405,2148.19 577.491,2154.8L572.675,2155.87C572.416,2148.75 571.54,2143.38 570.047,2139.74C568.553,2136.11 566.348,2134.29 563.43,2134.29C560.392,2134.29 558.178,2135.94 556.788,2139.24C555.399,2142.55 554.704,2146.53 554.704,2151.19C554.704,2155.23 555.196,2158.56 556.18,2161.17C557.147,2163.78 559.671,2166.46 563.754,2169.2C567.837,2171.94 570.638,2174.33 572.157,2176.38C574.367,2179.4 575.998,2183.23 577.051,2187.86C578.104,2192.49 578.631,2197.83 578.631,2203.87C578.631,2209.86 578.052,2215.51 576.896,2220.81C575.739,2226.11 574.078,2230.23 571.911,2233.17C569.745,2236.12 567.306,2237.59 564.596,2237.59C561.16,2237.59 558.282,2236.11 555.96,2233.14C553.638,2230.16 551.817,2225.7 550.496,2219.73C549.175,2213.77 548.48,2207.02 548.411,2199.49Z" style="fill-rule:nonzero;"/>
                    <rect x="601.082" y="2123.08" width="5.024" height="112.593" style="fill-rule:nonzero;"/>
                    <path d="M614.91,2235.67L614.91,2123.08L620.063,2123.08L640.002,2211.48L640.002,2123.08L644.818,2123.08L644.818,2235.67L639.665,2235.67L619.726,2147.19L619.726,2235.67L614.91,2235.67Z" style="fill-rule:nonzero;"/>
                    <path d="M666.466,2180.83C666.466,2162.14 668.158,2147.51 671.542,2136.94C674.925,2126.37 679.293,2121.08 684.645,2121.08C688.149,2121.08 691.308,2123.56 694.122,2128.53C696.936,2133.5 699.081,2140.42 700.557,2149.3C702.033,2158.19 702.771,2168.26 702.771,2179.53C702.771,2190.95 701.994,2201.16 700.44,2210.17C698.887,2219.18 696.686,2226.01 693.837,2230.64C690.989,2235.27 687.916,2237.59 684.619,2237.59C681.045,2237.59 677.851,2235.03 675.038,2229.91C672.224,2224.79 670.092,2217.8 668.642,2208.94C667.191,2200.08 666.466,2190.71 666.466,2180.83ZM671.645,2181.06C671.645,2194.63 672.875,2205.32 675.335,2213.13C677.795,2220.94 680.881,2224.84 684.593,2224.84C688.373,2224.84 691.485,2220.9 693.928,2213.01C696.371,2205.13 697.592,2193.94 697.592,2179.45C697.592,2170.28 697.07,2162.28 696.025,2155.45C694.981,2148.61 693.453,2143.31 691.442,2139.55C689.431,2135.79 687.174,2133.91 684.67,2133.91C681.114,2133.91 678.054,2137.53 675.491,2144.77C672.927,2152.02 671.645,2164.12 671.645,2181.06Z" style="fill-rule:nonzero;"/>
                    <path d="M709.193,2235.67L709.193,2123.08L714.346,2123.08L734.285,2211.48L734.285,2123.08L739.102,2123.08L739.102,2235.67L733.948,2235.67L714.009,2147.19L714.009,2235.67L709.193,2235.67Z" style="fill-rule:nonzero;"/>
                    <path d="M747.647,2235.67L747.647,2123.08L775.096,2123.08L775.096,2136.36L752.671,2136.36L752.671,2170.85L773.671,2170.85L773.671,2184.06L752.671,2184.06L752.671,2222.38L775.976,2222.38L775.976,2235.67L747.647,2235.67Z" style="fill-rule:nonzero;"/>
                    <path d="M824.736,2196.19L829.76,2199.96C828.707,2212.19 826.812,2221.53 824.076,2227.95C821.34,2234.38 817.995,2237.59 814.041,2237.59C809.95,2237.59 806.623,2235.12 804.059,2230.18C801.495,2225.24 799.545,2218.08 798.207,2208.71C796.869,2199.34 796.2,2189.28 796.2,2178.53C796.2,2166.8 796.955,2156.58 798.466,2147.85C799.976,2139.12 802.125,2132.49 804.914,2127.95C807.702,2123.42 810.77,2121.16 814.119,2121.16C817.917,2121.16 821.111,2124.02 823.7,2129.76C826.29,2135.49 828.094,2143.56 829.112,2153.95L824.166,2157.41C823.286,2149.22 822.008,2143.25 820.334,2139.51C818.659,2135.78 816.553,2133.91 814.016,2133.91C811.098,2133.91 808.66,2135.98 806.7,2140.13C804.741,2144.27 803.364,2149.84 802.57,2156.83C801.776,2163.82 801.379,2171.03 801.379,2178.45C801.379,2188.03 801.849,2196.39 802.79,2203.53C803.731,2210.67 805.194,2216.01 807.179,2219.54C809.165,2223.07 811.314,2224.84 813.627,2224.84C816.441,2224.84 818.823,2222.43 820.774,2217.62C822.725,2212.81 824.046,2205.66 824.736,2196.19Z" style="fill-rule:nonzero;"/>
                    <path d="M835.741,2235.67L835.741,2123.08L840.765,2123.08L840.765,2222.38L859.461,2222.38L859.461,2235.67L835.741,2235.67Z" style="fill-rule:nonzero;"/>
                    <rect x="866.297" y="2123.08" width="5.024" height="112.593" style="fill-rule:nonzero;"/>
                    <path d="M907.263,2196.19L912.287,2199.96C911.234,2212.19 909.339,2221.53 906.603,2227.95C903.867,2234.38 900.522,2237.59 896.569,2237.59C892.477,2237.59 889.15,2235.12 886.586,2230.18C884.022,2225.24 882.072,2218.08 880.734,2208.71C879.396,2199.34 878.727,2189.28 878.727,2178.53C878.727,2166.8 879.482,2156.58 880.993,2147.85C882.503,2139.12 884.653,2132.49 887.441,2127.95C890.229,2123.42 893.297,2121.16 896.646,2121.16C900.444,2121.16 903.638,2124.02 906.227,2129.76C908.817,2135.49 910.621,2143.56 911.639,2153.95L906.693,2157.41C905.813,2149.22 904.536,2143.25 902.861,2139.51C901.186,2135.78 899.08,2133.91 896.543,2133.91C893.625,2133.91 891.187,2135.98 889.227,2140.13C887.268,2144.27 885.891,2149.84 885.097,2156.83C884.303,2163.82 883.906,2171.03 883.906,2178.45C883.906,2188.03 884.376,2196.39 885.317,2203.53C886.258,2210.67 887.721,2216.01 889.706,2219.54C891.692,2223.07 893.841,2224.84 896.154,2224.84C898.968,2224.84 901.35,2222.43 903.301,2217.62C905.252,2212.81 906.573,2205.66 907.263,2196.19Z" style="fill-rule:nonzero;"/>
                    <path d="M918.269,2235.67L918.269,2123.08L923.292,2123.08L923.292,2178.91L942.144,2123.08L948.954,2123.08L933.029,2168.7L949.653,2235.67L943.024,2235.67L929.507,2178.68L923.292,2196.65L923.292,2235.67L918.269,2235.67Z" style="fill-rule:nonzero;"/>
                </g>
                <g id="QLIXA" transform="matrix(1,0,0,1,-0.5,-22)">
                    <g>
                        <path d="M431.998,2273.76C425.284,2275.99 417.248,2277.11 407.889,2277.11C388.358,2277.11 372.217,2271.28 359.468,2259.62C344.005,2245.58 336.274,2224.96 336.274,2197.77C336.274,2170.37 344.209,2149.65 360.078,2135.61C373.031,2124.15 389.137,2118.42 408.397,2118.42C427.793,2118.42 444.069,2124.49 457.226,2136.63C472.417,2150.67 480.012,2170.3 480.012,2195.53C480.012,2208.89 478.384,2220.08 475.129,2229.1C472.484,2237.71 468.585,2244.87 463.431,2250.56L480.724,2266.74L464.346,2283.83L446.239,2266.74C440.746,2270.06 435.999,2272.4 431.998,2273.76ZM425.284,2246.7L410.127,2232.25L426.301,2215.37L441.458,2229.81C443.832,2224.93 445.493,2220.66 446.443,2216.99C447.935,2211.5 448.681,2205.09 448.681,2197.77C448.681,2180.95 445.239,2167.95 438.356,2158.76C431.472,2149.57 421.418,2144.97 408.194,2144.97C395.784,2144.97 385.882,2149.38 378.49,2158.2C371.098,2167.01 367.402,2180.2 367.402,2197.77C367.402,2218.32 372.692,2233.03 383.271,2241.92C390.121,2247.68 398.327,2250.56 407.889,2250.56C411.483,2250.56 414.942,2250.12 418.265,2249.24C420.096,2248.77 422.436,2247.92 425.284,2246.7Z" style="fill-rule:nonzero;"/>
                        <path d="M503.917,2123L535.249,2123L535.249,2245.99L609.508,2245.99L609.508,2272.94L503.917,2272.94L503.917,2123Z" style="fill-rule:nonzero;"/>
                        <rect x="628.734" y="2123" width="31.128" height="149.943" style="fill-rule:nonzero;"/>
                        <path d="M809.602,2272.94L771.557,2272.94L743.074,2221.88L712.963,2272.94L676.545,2272.94L724.763,2196.55L678.885,2123L716.32,2123L743.074,2171.73L770.539,2123L806.754,2123L760.875,2195.33L809.602,2272.94Z" style="fill-rule:nonzero;"/>
                    </g>
                    <g transform="matrix(1.42857,0,0,1.42857,-751.071,1379.87)">
                        <path d="M1098,626L1147,521L1177,575L1259,546C1205.66,573.145 1151.96,599.762 1098,626ZM1129,596L1162,581L1147,557L1129,596Z" style="fill:url(#_Linear1);"/>
                        <g transform="matrix(1,0,0,1,0,-1)">
                            <path d="M1190,604L1197,617L1175,617L1175,612L1190,604Z" style="fill:url(#_Linear2);"/>
                        </g>
                    </g>
                </g>
            </g>
        </g>
        <g transform="matrix(0.530769,0,0,0.530769,20.9769,-1364.95)">
            <g id="LOGO-for-white-bg" serif:id="LOGO for white bg" transform="matrix(0.426904,0,0,0.426904,-26.7245,1886.92)">
                <path id="тело" d="M467.454,1779.77L392,1695L504.432,1706.69C538.195,1665.95 589.098,1640 646,1640C747.552,1640 830,1722.67 830,1824.5C830,1859.96 820.002,1893.1 802.68,1921.23L896,1962C898.943,1969.69 899.011,1977.03 896,1984L836,2036C829.333,2037.33 822.667,2037.49 816,2036L758.991,1970.08C735.058,1988.79 706.401,2001.7 675.127,2006.7L668,2055L644.62,2009C633.229,2008.91 622.083,2007.79 611.272,2005.71L604,2055L573,1994L573.26,1994C507.84,1965.7 462,1900.43 462,1824.5C462,1809.08 463.891,1794.09 467.454,1779.77Z"/>
                <g id="QLIXA1" serif:id="QLIXA" transform="matrix(0.283488,0,0,0.283488,430.596,1243.57)">
                    <path d="M431.998,2273.76C425.284,2275.99 417.248,2277.11 407.889,2277.11C388.358,2277.11 372.217,2271.28 359.468,2259.62C344.005,2245.58 336.274,2224.96 336.274,2197.77C336.274,2170.37 344.209,2149.65 360.078,2135.61C373.031,2124.15 389.137,2118.42 408.397,2118.42C427.793,2118.42 444.069,2124.49 457.226,2136.63C472.417,2150.67 480.012,2170.3 480.012,2195.53C480.012,2208.89 478.384,2220.08 475.129,2229.1C472.484,2237.71 468.585,2244.87 463.431,2250.56L480.724,2266.74L464.346,2283.83L446.239,2266.74C440.746,2270.06 435.999,2272.4 431.998,2273.76ZM425.284,2246.7L410.127,2232.25L426.301,2215.37L441.458,2229.81C443.832,2224.93 445.493,2220.66 446.443,2216.99C447.935,2211.5 448.681,2205.09 448.681,2197.77C448.681,2180.95 445.239,2167.95 438.356,2158.76C431.472,2149.57 421.418,2144.97 408.194,2144.97C395.784,2144.97 385.882,2149.38 378.49,2158.2C371.098,2167.01 367.402,2180.2 367.402,2197.77C367.402,2218.32 372.692,2233.03 383.271,2241.92C390.121,2247.68 398.327,2250.56 407.889,2250.56C411.483,2250.56 414.942,2250.12 418.265,2249.24C420.096,2248.77 422.436,2247.92 425.284,2246.7Z" style="fill:white;fill-rule:nonzero;"/>
                    <path d="M503.917,2123L535.249,2123L535.249,2245.99L609.508,2245.99L609.508,2272.94L503.917,2272.94L503.917,2123Z" style="fill:white;fill-rule:nonzero;"/>
                    <rect x="628.734" y="2123" width="31.128" height="149.943" style="fill:white;fill-rule:nonzero;"/>
                    <path d="M809.602,2272.94L771.557,2272.94L743.074,2221.88L712.963,2272.94L676.545,2272.94L724.763,2196.55L678.885,2123L716.32,2123L743.074,2171.73L770.539,2123L806.754,2123L760.875,2195.33L809.602,2272.94Z" style="fill:white;fill-rule:nonzero;"/>
                    <g transform="matrix(1.42857,0,0,1.42857,-751.071,1379.87)">
                        <path d="M1098,626L1147,521L1177,575L1259,546C1205.66,573.145 1151.96,599.762 1098,626ZM1129,596L1162,581L1147,557L1129,596Z" style="fill:white;"/>
                        <g transform="matrix(1,0,0,1,0,-1)">
                            <path d="M1190,604L1197,617L1175,617L1175,612L1190,604Z" style="fill:white;"/>
                        </g>
                    </g>
                </g>
                <g id="полоски" transform="matrix(0.432204,0,0,0.432204,-175.949,1377.11)">
                    <g transform="matrix(6.12323e-17,-1,1,6.12323e-17,973.636,3275.79)">
                        <path d="M2022.83,980.071C2022.83,980.071 2010.13,970.547 2004.95,980.071L2004.95,1203.21C2011.85,1212.5 2017.66,1211.73 2022.62,1203.21L2022.83,980.071Z" style="fill:white;"/>
                    </g>
                    <g transform="matrix(6.12323e-17,-1,1,6.12323e-17,973.636,3226.79)">
                        <path d="M2022.83,980.071C2022.83,980.071 2010.13,970.547 2004.95,980.071L2004.95,1203.21C2011.85,1212.5 2017.66,1211.73 2022.62,1203.21L2022.83,980.071Z" style="fill:white;"/>
                    </g>
                    <g transform="matrix(6.12323e-17,-1,1,6.12323e-17,973.636,3180.79)">
                        <path d="M2022.83,1103.07C2022.83,1103.07 2010.13,1093.55 2004.95,1103.07L2004.95,1203.21C2011.85,1212.5 2017.66,1211.73 2022.62,1203.21L2022.83,1103.07Z" style="fill:white;"/>
                    </g>
                    <g transform="matrix(6.12323e-17,-1,1,6.12323e-17,973.636,3130.79)">
                        <path d="M2022.83,1103.07C2022.83,1103.07 2010.13,1093.55 2004.95,1103.07L2004.95,1203.21C2011.85,1212.5 2017.66,1211.73 2022.62,1203.21L2022.83,1103.07Z" style="fill:white;"/>
                    </g>
                    <g transform="matrix(6.12323e-17,-1,1,6.12323e-17,973.636,3082.79)">
                        <path d="M2022.83,1103.07C2022.83,1103.07 2010.13,1093.55 2004.95,1103.07L2004.95,1203.21C2011.85,1212.5 2017.66,1211.73 2022.62,1203.21L2022.83,1103.07Z" style="fill:white;"/>
                    </g>
                    <g transform="matrix(6.12323e-17,-1,1,6.12323e-17,973.636,3032.79)">
                        <path d="M2022.83,1103.07C2022.83,1103.07 2010.13,1093.55 2004.95,1103.07L2004.95,1203.21C2011.85,1212.5 2017.66,1211.73 2022.62,1203.21L2022.83,1103.07Z" style="fill:white;"/>
                    </g>
                </g>
                <path id="клюв" d="M467.454,1779.77L392,1695L504.432,1706.69L467.454,1779.77Z" style="fill:rgb(204,0,0);"/>
                <path id="глаз" d="M490,1832C496.683,1733.57 552.699,1683.52 648,1672C628.425,1726.08 628.121,1779.39 645,1832C591.363,1807.93 539.611,1806.89 490,1832Z" style="fill:white;"/>
                <g id="зрачок" transform="matrix(0.984252,0,0,0.984252,12.7559,27.9134)">
                    <circle cx="580" cy="1733" r="24"/>
                </g>
            </g>
        </g>
    </g>
    <defs>
        <linearGradient id="_Linear1" x1="0" y1="0" x2="1" y2="0" gradientUnits="userSpaceOnUse" gradientTransform="matrix(711.226,0,0,165.405,336.274,2201.12)"><stop offset="0" style="stop-color:white;stop-opacity:1"/><stop offset="1" style="stop-color:rgb(3,131,144);stop-opacity:1"/></linearGradient>
        <linearGradient id="_Linear2" x1="0" y1="0" x2="1" y2="0" gradientUnits="userSpaceOnUse" gradientTransform="matrix(711.226,0,0,165.405,336.274,2201.12)"><stop offset="0" style="stop-color:white;stop-opacity:1"/><stop offset="1" style="stop-color:rgb(3,131,144);stop-opacity:1"/></linearGradient>
    </defs>
</svg>
