<?xml version="1.0" encoding="UTF-8" standalone="no"?>
<!DOCTYPE svg PUBLIC "-//W3C//DTD SVG 1.1//EN" "http://www.w3.org/Graphics/SVG/1.1/DTD/svg11.dtd">
<svg width="100%" height="100%" viewBox="0 0 217 178" version="1.1" xmlns="http://www.w3.org/2000/svg" xmlns:xlink="http://www.w3.org/1999/xlink" xml:space="preserve" xmlns:serif="http://www.serif.com/" style="fill-rule:evenodd;clip-rule:evenodd;stroke-linejoin:round;stroke-miterlimit:2;">
    <g id="LOGO-for-white-bg" serif:id="LOGO for white bg">
        <path id="тело" d="M32.212,59.668L0,23.48L47.998,28.472C62.411,11.08 84.142,0 108.434,0C151.787,0 186.984,35.293 186.984,78.764C186.984,93.902 182.716,108.048 175.321,120.058L215.16,137.463C216.416,140.744 216.445,143.879 215.16,146.855L189.546,169.054C186.7,169.622 183.854,169.689 181.007,169.054L156.67,140.914C146.453,148.901 134.219,154.412 120.868,156.545L117.826,177.165L107.845,157.526C102.982,157.49 98.224,157.01 93.608,156.124L90.504,177.165L77.27,151.124L77.381,151.124C49.453,139.045 29.883,111.178 29.883,78.764C29.883,72.18 30.691,65.783 32.212,59.668Z"/>
        <g id="QLIXA">
            <path d="M68.758,105.938C67.946,106.209 66.973,106.344 65.84,106.344C63.477,106.344 61.523,105.638 59.98,104.227C58.109,102.528 57.173,100.033 57.173,96.741C57.173,93.426 58.134,90.918 60.054,89.219C61.622,87.832 63.571,87.139 65.902,87.139C68.249,87.139 70.219,87.873 71.811,89.342C73.65,91.041 74.569,93.417 74.569,96.471C74.569,98.087 74.372,99.442 73.978,100.533C73.658,101.576 73.186,102.441 72.562,103.131L74.655,105.088L72.673,107.157L70.482,105.088C69.817,105.49 69.242,105.774 68.758,105.938ZM67.946,102.663L66.111,100.915L68.069,98.871L69.903,100.619C70.19,100.028 70.391,99.511 70.506,99.068C70.687,98.403 70.777,97.628 70.777,96.741C70.777,94.706 70.361,93.132 69.528,92.02C68.695,90.908 67.478,90.352 65.877,90.352C64.375,90.352 63.177,90.885 62.283,91.952C61.388,93.019 60.941,94.616 60.941,96.741C60.941,99.228 61.581,101.009 62.861,102.084C63.69,102.782 64.683,103.131 65.84,103.131C66.275,103.131 66.694,103.077 67.096,102.971C67.318,102.913 67.601,102.811 67.946,102.663Z" style="fill:white;fill-rule:nonzero;"/>
            <path d="M77.462,87.693L81.254,87.693L81.254,102.577L90.241,102.577L90.241,105.839L77.462,105.839L77.462,87.693Z" style="fill:white;fill-rule:nonzero;"/>
            <rect x="92.568" y="87.693" width="3.767" height="18.146" style="fill:white;fill-rule:nonzero;"/>
            <path d="M114.457,105.839L109.852,105.839L106.405,99.659L102.761,105.839L98.354,105.839L104.189,96.594L98.637,87.693L103.167,87.693L106.405,93.59L109.729,87.693L114.112,87.693L108.56,96.446L114.457,105.839Z" style="fill:white;fill-rule:nonzero;"/>
            <g>
                <path d="M115.413,105.986L123.884,87.833L129.071,97.169L143.248,92.155C134.026,96.848 124.742,101.45 115.413,105.986ZM120.772,100.799L126.477,98.206L123.884,94.057L120.772,100.799Z" style="fill:white;"/>
                <path d="M131.318,102.009L132.529,104.257L128.725,104.257L128.725,103.393L131.318,102.009Z" style="fill:white;"/>
            </g>
        </g>
        <g id="полоски">
            <path d="M118.018,118.953C118.018,118.953 116.261,121.296 118.018,122.252L159.189,122.252C160.903,120.978 160.761,119.906 159.189,118.991L118.018,118.953Z" style="fill:white;"/>
            <path d="M118.018,109.912C118.018,109.912 116.261,112.255 118.018,113.211L159.189,113.211C160.903,111.937 160.761,110.865 159.189,109.95L118.018,109.912Z" style="fill:white;"/>
            <path d="M140.713,101.425C140.713,101.425 138.955,103.768 140.713,104.724L159.189,104.724C160.903,103.449 160.761,102.378 159.189,101.463L140.713,101.425Z" style="fill:white;"/>
            <path d="M140.713,92.199C140.713,92.199 138.955,94.542 140.713,95.498L159.189,95.498C160.903,94.224 160.761,93.153 159.189,92.237L140.713,92.199Z" style="fill:white;"/>
            <path d="M140.713,83.343C140.713,83.343 138.955,85.686 140.713,86.642L159.189,86.642C160.903,85.368 160.761,84.296 159.189,83.381L140.713,83.343Z" style="fill:white;"/>
            <path d="M140.713,74.117C140.713,74.117 138.955,76.46 140.713,77.416L159.189,77.416C160.903,76.142 160.761,75.071 159.189,74.155L140.713,74.117Z" style="fill:white;"/>
        </g>
        <path id="клюв" d="M32.212,59.668L0,23.48L47.998,28.472L32.212,59.668Z" style="fill:rgb(204,0,0);"/>
        <path id="глаз" d="M41.837,81.966C44.69,39.946 68.603,18.58 109.288,13.661C100.931,36.748 100.801,59.505 108.007,81.966C85.109,71.692 63.016,71.248 41.837,81.966Z" style="fill:white;"/>
        <circle id="зрачок" cx="81.804" cy="39.968" r="10.084"/>
    </g>
</svg>
