<?xml version="1.0" encoding="UTF-8" standalone="no"?>
<!DOCTYPE svg PUBLIC "-//W3C//DTD SVG 1.1//EN" "http://www.w3.org/Graphics/SVG/1.1/DTD/svg11.dtd">
<svg width="100%" height="100%" viewBox="0 0 130 130" version="1.1" xmlns="http://www.w3.org/2000/svg" xmlns:xlink="http://www.w3.org/1999/xlink" xml:space="preserve" xmlns:serif="http://www.serif.com/" style="fill-rule:evenodd;clip-rule:evenodd;stroke-linejoin:round;stroke-miterlimit:2;">
    <g transform="matrix(1,0,0,1,-504.686,-841.807)">
        <g transform="matrix(1,0,0,1,101,-565)">
            <g transform="matrix(0.459197,0,0,0.459197,-381.197,661.415)">
                <g transform="matrix(1.07653,0,0,1.07653,-128.624,-141.42)">
                    <circle cx="1816" cy="1748" r="108.772" style="fill:rgb(78,59,53);"/>
                </g>
                <g transform="matrix(1.07653,0,0,1.07653,-128.624,-141.42)">
                    <path d="M1876.9,1822.19C1860.33,1835.82 1839.11,1844 1816,1844C1763.02,1844 1720,1800.98 1720,1748C1720,1695.02 1763.02,1652 1816,1652C1868.98,1652 1912,1695.02 1912,1748C1912,1771.19 1903.76,1792.47 1890.05,1809.07L1966.33,1885.1C1969.96,1888.72 1969.97,1894.6 1966.35,1898.23L1966.35,1898.24C1962.73,1901.87 1956.85,1901.88 1953.22,1898.26L1876.9,1822.19ZM1816,1668.16C1771.94,1668.16 1736.16,1703.94 1736.16,1748C1736.16,1792.06 1771.94,1827.84 1816,1827.84C1860.06,1827.84 1895.84,1792.06 1895.84,1748C1895.84,1703.94 1860.06,1668.16 1816,1668.16Z" style="fill:rgb(255,112,51);"/>
                </g>
                <g transform="matrix(1.0614,0,0,0.952381,-116.93,82.8571)">
                    <path d="M1888,1700.8L1888,1779.2C1888,1792.34 1878.43,1803 1866.64,1803L1795.36,1803C1783.57,1803 1774,1792.34 1774,1779.2L1774,1700.8C1774,1687.66 1783.57,1677 1795.36,1677L1866.64,1677C1878.43,1677 1888,1687.66 1888,1700.8Z" style="fill:rgb(164,86,54);"/>
                </g>
                <g transform="matrix(0.921053,0,0,0.826446,140.053,301.983)">
                    <path d="M1888,1694.09L1888,1785.91C1888,1795.34 1881.13,1803 1872.66,1803L1789.34,1803C1780.87,1803 1774,1795.34 1774,1785.91L1774,1694.09C1774,1684.66 1780.87,1677 1789.34,1677L1872.66,1677C1881.13,1677 1888,1684.66 1888,1694.09Z" style="fill:rgb(72,57,53);"/>
                </g>
                <g transform="matrix(1,0,0,1,0.5,0)">
                    <path d="M1864,1708L1864,1708C1864,1711.31 1861.31,1714 1858,1714L1794,1714C1790.69,1714 1788,1711.31 1788,1708L1788,1708C1788,1704.69 1790.69,1702 1794,1702L1858,1702C1861.31,1702 1864,1704.69 1864,1708Z" style="fill:rgb(246,109,52);"/>
                </g>
                <g transform="matrix(1,0,0,1,0.5,69)">
                    <path d="M1864,1708L1864,1708C1864,1711.31 1861.31,1714 1858,1714L1794,1714C1790.69,1714 1788,1711.31 1788,1708L1788,1708C1788,1704.69 1790.69,1702 1794,1702L1858,1702C1861.31,1702 1864,1704.69 1864,1708Z" style="fill:rgb(143,79,55);"/>
                </g>
                <path d="M1821,1731.48L1821,1756.52C1821,1758.99 1818.99,1761 1816.52,1761L1792.48,1761C1790.01,1761 1788,1758.99 1788,1756.52L1788,1731.48C1788,1729.01 1790.01,1727 1792.48,1727L1816.52,1727C1818.99,1727 1821,1729.01 1821,1731.48Z" style="fill:rgb(124,74,54);"/>
                <g transform="matrix(1,0,0,1,44,0)">
                    <path d="M1821,1731.48L1821,1756.52C1821,1758.99 1818.99,1761 1816.52,1761L1792.48,1761C1790.01,1761 1788,1758.99 1788,1756.52L1788,1731.48C1788,1729.01 1790.01,1727 1792.48,1727L1816.52,1727C1818.99,1727 1821,1729.01 1821,1731.48Z" style="fill:rgb(164,86,54);"/>
                </g>
            </g>
        </g>
    </g>
</svg>
