<?xml version="1.0" encoding="UTF-8" standalone="no"?>
<!DOCTYPE svg PUBLIC "-//W3C//DTD SVG 1.1//EN" "http://www.w3.org/Graphics/SVG/1.1/DTD/svg11.dtd">
<svg width="100%" height="100%" viewBox="0 0 512 512" version="1.1" xmlns="http://www.w3.org/2000/svg" xmlns:xlink="http://www.w3.org/1999/xlink" xml:space="preserve" xmlns:serif="http://www.serif.com/" style="fill-rule:evenodd;clip-rule:evenodd;stroke-linejoin:round;stroke-miterlimit:2;">
    <path id="tail" d="M345.735,351.452C326.783,366.267 394.049,290.487 380.332,312.765L454.232,345.051C456.562,351.138 456.616,356.951 454.232,362.473L406.718,403.651C401.439,404.704 396.16,404.83 390.88,403.651L345.735,351.452Z" style="fill:white;"/>
    <circle id="body" cx="256.748" cy="235.863" r="145.695" style="fill:white;"/>
    <path id="leg-right" serif:id="leg right" d="M275.778,421.833L248.695,372.485L283.18,366.03L275.778,421.833Z" style="fill:white;"/>
    <path id="leg-left" serif:id="leg left" d="M224.575,420.163L199.609,369.711L234.336,364.724L224.575,420.163Z" style="fill:white;"/>
    <g>
        <path d="M274.92,311.598C274.92,311.598 271.66,315.944 274.92,317.718L351.291,317.718C354.471,315.354 354.207,313.367 351.291,311.669L274.92,311.598Z"/>
        <path d="M274.92,294.827C274.92,294.827 271.66,299.174 274.92,300.947L351.291,300.947C354.471,298.584 354.207,296.596 351.291,294.898L274.92,294.827Z"/>
        <path d="M317.018,279.083C317.018,279.083 313.758,283.43 317.018,285.203L351.291,285.203C354.471,282.84 354.207,280.852 351.291,279.154L317.018,279.083Z"/>
        <path d="M317.018,261.97C317.018,261.97 313.758,266.317 317.018,268.09L351.291,268.09C354.471,265.727 354.207,263.739 351.291,262.041L317.018,261.97Z"/>
        <path d="M317.018,245.542C317.018,245.542 313.758,249.888 317.018,251.662L351.291,251.662C354.471,249.298 354.207,247.311 351.291,245.613L317.018,245.542Z"/>
        <path d="M317.018,228.429C317.018,228.429 313.758,232.775 317.018,234.549L351.291,234.549C354.471,232.185 354.207,230.198 351.291,228.5L317.018,228.429Z"/>
    </g>
    <path id="beak" d="M115.752,201.627L56,134.498L145.034,143.758L115.752,201.627Z" style="fill:rgb(204,0,0);"/>
    <path id="eye" d="M133.606,242.988C138.898,165.043 183.256,125.409 258.725,116.285C243.224,159.111 242.983,201.323 256.349,242.988C213.875,223.93 172.893,223.106 133.606,242.988Z"/>
    <circle id="pupil" cx="207.745" cy="165.083" r="18.706" style="fill:white;"/>
</svg>
