<?xml version="1.0" encoding="UTF-8" standalone="no"?>
<!DOCTYPE svg PUBLIC "-//W3C//DTD SVG 1.1//EN" "http://www.w3.org/Graphics/SVG/1.1/DTD/svg11.dtd">
<svg width="100%" height="100%" viewBox="0 0 497 116" version="1.1" xmlns="http://www.w3.org/2000/svg" xmlns:xlink="http://www.w3.org/1999/xlink" xml:space="preserve" xmlns:serif="http://www.serif.com/" style="fill-rule:evenodd;clip-rule:evenodd;stroke-linejoin:round;stroke-miterlimit:2;">
    <g transform="matrix(1,0,0,1,-290.465,-112.986)">
        <g transform="matrix(0.697492,0,0,0.697492,56.2654,-1349.25)">
            <g id="QLIXA" transform="matrix(1,0,0,1,-0.5,-22)">
                <path d="M431.998,2273.76C425.284,2275.99 417.248,2277.11 407.889,2277.11C388.358,2277.11 372.217,2271.28 359.468,2259.62C344.005,2245.58 336.274,2224.96 336.274,2197.77C336.274,2170.37 344.209,2149.65 360.078,2135.61C373.031,2124.15 389.137,2118.42 408.397,2118.42C427.793,2118.42 444.069,2124.49 457.226,2136.63C472.417,2150.67 480.012,2170.3 480.012,2195.53C480.012,2208.89 478.384,2220.08 475.129,2229.1C472.484,2237.71 468.585,2244.87 463.431,2250.56L480.724,2266.74L464.346,2283.83L446.239,2266.74C440.746,2270.06 435.999,2272.4 431.998,2273.76ZM425.284,2246.7L410.127,2232.25L426.301,2215.37L441.458,2229.81C443.832,2224.93 445.493,2220.66 446.443,2216.99C447.935,2211.5 448.681,2205.09 448.681,2197.77C448.681,2180.95 445.239,2167.95 438.356,2158.76C431.472,2149.57 421.418,2144.97 408.194,2144.97C395.784,2144.97 385.882,2149.38 378.49,2158.2C371.098,2167.01 367.402,2180.2 367.402,2197.77C367.402,2218.32 372.692,2233.03 383.271,2241.92C390.121,2247.68 398.327,2250.56 407.889,2250.56C411.483,2250.56 414.942,2250.12 418.265,2249.24C420.096,2248.77 422.436,2247.92 425.284,2246.7Z" style="fill:url(#_Linear1);fill-rule:nonzero;"/>
                <path d="M503.917,2123L535.249,2123L535.249,2245.99L609.508,2245.99L609.508,2272.94L503.917,2272.94L503.917,2123Z" style="fill:url(#_Linear2);fill-rule:nonzero;"/>
                <rect x="628.734" y="2123" width="31.128" height="149.943" style="fill:url(#_Linear3);fill-rule:nonzero;"/>
                <path d="M809.602,2272.94L771.557,2272.94L743.074,2221.88L712.963,2272.94L676.545,2272.94L724.763,2196.55L678.885,2123L716.32,2123L743.074,2171.73L770.539,2123L806.754,2123L760.875,2195.33L809.602,2272.94Z" style="fill:url(#_Linear4);fill-rule:nonzero;"/>
                <g transform="matrix(1.42857,0,0,1.42857,-751.071,1379.87)">
                    <path d="M1098,626L1147,521L1177,575L1259,546C1205.66,573.145 1151.96,599.762 1098,626ZM1129,596L1162,581L1147,557L1129,596Z" style="fill:url(#_Linear5);"/>
                    <g transform="matrix(1,0,0,1,0,-1)">
                        <path d="M1190,604L1197,617L1175,617L1175,612L1190,604Z" style="fill:url(#_Linear6);"/>
                    </g>
                </g>
            </g>
        </g>
    </g>
    <defs>
        <linearGradient id="_Linear1" x1="0" y1="0" x2="1" y2="0" gradientUnits="userSpaceOnUse" gradientTransform="matrix(711.226,0,0,165.405,336.274,2201.12)"><stop offset="0" style="stop-color:white;stop-opacity:1"/><stop offset="1" style="stop-color:rgb(3,131,144);stop-opacity:1"/></linearGradient>
        <linearGradient id="_Linear2" x1="0" y1="0" x2="1" y2="0" gradientUnits="userSpaceOnUse" gradientTransform="matrix(711.226,0,0,165.405,336.274,2201.12)"><stop offset="0" style="stop-color:white;stop-opacity:1"/><stop offset="1" style="stop-color:rgb(3,131,144);stop-opacity:1"/></linearGradient>
        <linearGradient id="_Linear3" x1="0" y1="0" x2="1" y2="0" gradientUnits="userSpaceOnUse" gradientTransform="matrix(711.226,0,0,165.405,336.274,2201.12)"><stop offset="0" style="stop-color:white;stop-opacity:1"/><stop offset="1" style="stop-color:rgb(3,131,144);stop-opacity:1"/></linearGradient>
        <linearGradient id="_Linear4" x1="0" y1="0" x2="1" y2="0" gradientUnits="userSpaceOnUse" gradientTransform="matrix(711.226,0,0,165.405,336.274,2201.12)"><stop offset="0" style="stop-color:white;stop-opacity:1"/><stop offset="1" style="stop-color:rgb(3,131,144);stop-opacity:1"/></linearGradient>
        <linearGradient id="_Linear5" x1="0" y1="0" x2="1" y2="0" gradientUnits="userSpaceOnUse" gradientTransform="matrix(711.226,0,0,165.405,336.274,2201.12)"><stop offset="0" style="stop-color:white;stop-opacity:1"/><stop offset="1" style="stop-color:rgb(3,131,144);stop-opacity:1"/></linearGradient>
        <linearGradient id="_Linear6" x1="0" y1="0" x2="1" y2="0" gradientUnits="userSpaceOnUse" gradientTransform="matrix(711.226,0,0,165.405,336.274,2201.12)"><stop offset="0" style="stop-color:white;stop-opacity:1"/><stop offset="1" style="stop-color:rgb(3,131,144);stop-opacity:1"/></linearGradient>
    </defs>
</svg>
