<?xml version="1.0" encoding="UTF-8" standalone="no"?>
<!DOCTYPE svg PUBLIC "-//W3C//DTD SVG 1.1//EN" "http://www.w3.org/Graphics/SVG/1.1/DTD/svg11.dtd">
<svg width="100%" height="100%" viewBox="0 0 1464 254" version="1.1" xmlns="http://www.w3.org/2000/svg" xmlns:xlink="http://www.w3.org/1999/xlink" xml:space="preserve" xmlns:serif="http://www.serif.com/" style="fill-rule:evenodd;clip-rule:evenodd;stroke-linejoin:round;stroke-miterlimit:2;">
    <g transform="matrix(1,0,0,1,-551,-2753)">
        <g>
            <g>
                <rect x="1256.76" y="2826.88" width="24.936" height="120.117" style="fill-rule:nonzero;"/>
                <path d="M1356.83,2947L1305.08,2947L1305.08,2826.88L1356.83,2826.88C1364.27,2826.99 1370.46,2827.86 1375.41,2829.49C1383.83,2832.26 1390.65,2837.34 1395.86,2844.73C1400.04,2850.7 1402.9,2857.17 1404.42,2864.12C1405.94,2871.08 1406.7,2877.71 1406.7,2884.01C1406.7,2899.98 1403.49,2913.51 1397.08,2924.59C1388.39,2939.53 1374.97,2947 1356.83,2947ZM1375.49,2857.52C1371.63,2851 1364,2847.74 1352.59,2847.74L1329.45,2847.74L1329.45,2926.14L1352.59,2926.14C1364.43,2926.14 1372.69,2920.3 1377.36,2908.62C1379.92,2902.21 1381.19,2894.57 1381.19,2885.72C1381.19,2873.49 1379.29,2864.1 1375.49,2857.52Z" style="fill-rule:nonzero;"/>
                <path d="M1527.64,2922.31L1483.39,2922.31L1475.08,2947L1448.84,2947L1491.7,2826.88L1520.06,2826.88L1562.6,2947L1535.38,2947L1527.64,2922.31ZM1520.63,2901.61L1505.64,2854.35L1490.16,2901.61L1520.63,2901.61Z" style="fill-rule:nonzero;"/>
                <path d="M1632.93,2934.45C1632.71,2934.72 1632.17,2935.54 1631.3,2936.89C1630.43,2938.25 1629.4,2939.45 1628.2,2940.48C1624.56,2943.74 1621.04,2945.97 1617.65,2947.16C1614.25,2948.36 1610.27,2948.96 1605.71,2948.96C1592.56,2948.96 1583.71,2944.23 1579.14,2934.78C1576.59,2929.56 1575.31,2921.87 1575.31,2911.72L1575.31,2858.18L1599.11,2858.18L1599.11,2911.72C1599.11,2916.77 1599.71,2920.57 1600.9,2923.12C1603.02,2927.63 1607.18,2929.89 1613.37,2929.89C1621.3,2929.89 1626.73,2926.68 1629.67,2920.27C1631.19,2916.79 1631.95,2912.2 1631.95,2906.5L1631.95,2858.18L1655.5,2858.18L1655.5,2947L1632.93,2947L1632.93,2934.45Z" style="fill-rule:nonzero;"/>
                <path d="M1739.11,2862.25C1746.06,2866.7 1750.06,2874.37 1751.09,2885.23L1727.86,2885.23C1727.54,2882.24 1726.7,2879.88 1725.34,2878.14C1722.78,2874.99 1718.44,2873.41 1712.3,2873.41C1707.25,2873.41 1703.65,2874.2 1701.5,2875.78C1699.36,2877.35 1698.28,2879.2 1698.28,2881.32C1698.28,2883.98 1699.42,2885.91 1701.7,2887.1C1703.99,2888.35 1712.06,2890.5 1725.91,2893.54C1735.14,2895.72 1742.07,2899 1746.69,2903.4C1751.25,2907.86 1753.53,2913.43 1753.53,2920.11C1753.53,2928.91 1750.26,2936.09 1743.71,2941.66C1737.17,2947.23 1727.05,2950.01 1713.36,2950.01C1699.4,2950.01 1689.09,2947.07 1682.43,2941.17C1675.78,2935.28 1672.45,2927.77 1672.45,2918.64L1696,2918.64C1696.49,2922.77 1697.55,2925.7 1699.18,2927.44C1702.06,2930.54 1707.38,2932.09 1715.15,2932.09C1719.72,2932.09 1723.34,2931.41 1726.03,2930.05C1728.72,2928.69 1730.06,2926.66 1730.06,2923.94C1730.06,2921.33 1728.98,2919.35 1726.8,2917.99C1724.63,2916.63 1716.56,2914.3 1702.6,2910.98C1692.55,2908.48 1685.46,2905.36 1681.33,2901.61C1677.2,2897.91 1675.14,2892.59 1675.14,2885.64C1675.14,2877.43 1678.36,2870.39 1684.8,2864.49C1691.23,2858.6 1700.29,2855.65 1711.97,2855.65C1723.06,2855.65 1732.1,2857.85 1739.11,2862.25Z" style="fill-rule:nonzero;"/>
                <path d="M1811.39,2930.46L1811.39,2947.82L1800.39,2948.22C1789.42,2948.6 1781.92,2946.7 1777.9,2942.52C1775.29,2939.86 1773.99,2935.75 1773.99,2930.21L1773.99,2875.53L1761.6,2875.53L1761.6,2858.99L1773.99,2858.99L1773.99,2834.22L1796.97,2834.22L1796.97,2858.99L1811.39,2858.99L1811.39,2875.53L1796.97,2875.53L1796.97,2922.47C1796.97,2926.11 1797.43,2928.38 1798.35,2929.28C1799.28,2930.17 1802.1,2930.62 1806.83,2930.62C1807.54,2930.62 1808.28,2930.61 1809.07,2930.58C1809.86,2930.55 1810.63,2930.51 1811.39,2930.46Z" style="fill-rule:nonzero;"/>
                <path d="M1870.96,2879.61C1861.62,2879.61 1855.34,2882.65 1852.14,2888.73C1850.34,2892.16 1849.45,2897.43 1849.45,2904.54L1849.45,2947L1826.06,2947L1826.06,2858.18L1848.23,2858.18L1848.23,2873.66C1851.81,2867.74 1854.93,2863.69 1857.6,2861.52C1861.94,2857.88 1867.59,2856.06 1874.55,2856.06C1874.98,2856.06 1875.35,2856.07 1875.65,2856.1C1875.95,2856.12 1876.61,2856.16 1877.64,2856.22L1877.64,2880.01C1876.18,2879.85 1874.87,2879.74 1873.73,2879.69C1872.59,2879.63 1871.67,2879.61 1870.96,2879.61Z" style="fill-rule:nonzero;"/>
                <path d="M1915.13,2858.18L1915.13,2947L1891.58,2947L1891.58,2858.18L1915.13,2858.18ZM1915.13,2826.15L1915.13,2847.58L1891.58,2847.58L1891.58,2826.15L1915.13,2826.15Z" style="fill-rule:nonzero;"/>
                <path d="M1940.96,2867.79C1947.1,2859.97 1957.64,2856.06 1972.58,2856.06C1982.31,2856.06 1990.94,2857.99 1998.49,2861.84C2006.05,2865.7 2009.82,2872.98 2009.82,2883.68L2009.82,2924.43C2009.82,2927.25 2009.88,2930.68 2009.98,2934.7C2010.15,2937.74 2010.61,2939.8 2011.37,2940.89C2012.13,2941.97 2013.27,2942.87 2014.79,2943.58L2014.79,2947L1989.53,2947C1988.82,2945.21 1988.34,2943.52 1988.06,2941.95C1987.79,2940.37 1987.58,2938.58 1987.41,2936.57C1984.21,2940.05 1980.51,2943.01 1976.33,2945.45C1971.33,2948.33 1965.68,2949.77 1959.38,2949.77C1951.34,2949.77 1944.7,2947.47 1939.45,2942.89C1934.21,2938.29 1931.59,2931.79 1931.59,2923.37C1931.59,2912.45 1935.8,2904.54 1944.22,2899.65C1948.84,2896.99 1955.63,2895.09 1964.59,2893.95L1972.5,2892.97C1976.79,2892.43 1979.86,2891.75 1981.71,2890.93C1985.02,2889.52 1986.68,2887.32 1986.68,2884.33C1986.68,2880.69 1985.41,2878.18 1982.89,2876.8C1980.36,2875.41 1976.65,2874.72 1971.77,2874.72C1966.28,2874.72 1962.39,2876.08 1960.11,2878.79C1958.48,2880.8 1957.4,2883.52 1956.85,2886.94L1934.44,2886.94C1934.93,2879.17 1937.11,2872.79 1940.96,2867.79ZM1958.24,2930.21C1960.41,2932.01 1963.07,2932.9 1966.22,2932.9C1971.22,2932.9 1975.83,2931.43 1980.04,2928.5C1984.25,2925.57 1986.43,2920.22 1986.6,2912.45L1986.6,2903.81C1985.13,2904.73 1983.65,2905.48 1982.15,2906.05C1980.66,2906.62 1978.61,2907.15 1976,2907.64L1970.79,2908.62C1965.9,2909.49 1962.39,2910.55 1960.28,2911.8C1956.69,2913.91 1954.9,2917.2 1954.9,2921.66C1954.9,2925.62 1956.01,2928.47 1958.24,2930.21Z" style="fill-rule:nonzero;"/>
            </g>
            <path d="M766,2805L846,2805L878,2753L1064,2753C1088.56,2759.72 1101.86,2777.75 1106,2805L1106,2964C1098.51,2988.75 1085.02,3003.99 1063.5,3006.5L878,3006.5L827,2924L766,2924L766,2889L846,2889L894,2973L1046,2973C1060.76,2973.38 1070.37,2967.72 1074,2955L1074,2805C1073.65,2793.86 1067,2786.79 1046,2789L894,2789L862,2841L766,2841L766,2805Z" style="fill:rgb(6,23,42);"/>
            <g transform="matrix(1,0,0,1,5,3)">
                <ellipse cx="995.5" cy="2853" rx="29.5" ry="31" style="fill:rgb(6,23,42);"/>
            </g>
            <path d="M551,2803L724,2803L724,2846L566,2846L551,2803Z" style="fill:rgb(192,0,0);"/>
            <path d="M589,2883L724,2883L724,2923L605,2923L589,2883Z" style="fill:rgb(192,0,0);"/>
        </g>
    </g>
</svg>
